<svg id="Layer_1" xmlns="http://www.w3.org/2000/svg" viewBox="0 0 250 250"><style>.st0{fill:#007bb6}.st1{fill:#fff}</style><path id="Blue_1_" class="st0" d="M236.2 250c7.6 0 13.8-6.2 13.8-13.8V13.8C250 6.2 243.8 0 236.2 0H13.8C6.2 0 0 6.2 0 13.8v222.4c0 7.6 6.2 13.8 13.8 13.8h222.4z"/><path class="st1" d="M40.4 95.6h36.3v116.7H40.4V95.6zm18.1-58c11.6 0 21 9.4 21 21s-9.4 21-21 21-21-9.4-21-21 9.4-21 21-21m40.9 58h34.8v15.9h.5c4.8-9.2 16.7-18.8 34.3-18.8 36.7 0 43.5 24.2 43.5 55.6v64h-36.2v-56.7c0-13.5-.2-30.9-18.8-30.9-18.9 0-21.8 14.7-21.8 30v57.7H99.4V95.6z"/></svg>